<?xml version="1.0" encoding="UTF-8" standalone="no"?>
<!DOCTYPE svg PUBLIC "-//W3C//DTD SVG 1.1//EN"
 "http://www.w3.org/Graphics/SVG/1.1/DTD/svg11.dtd">
<!-- Generated by graphviz version 5.0.0 (20220707.1540)
 -->
<!-- Title: StorageDiagram Pages: 1 -->
<svg width="2228pt" height="762pt"
 viewBox="0.00 0.00 2227.91 761.60" xmlns="http://www.w3.org/2000/svg" xmlns:xlink="http://www.w3.org/1999/xlink">
<g id="graph0" class="graph" transform="scale(1 1) rotate(0) translate(4 757.6)">
<title>StorageDiagram</title>
<polygon fill="white" stroke="transparent" points="-4,4 -4,-757.6 2223.91,-757.6 2223.91,4 -4,4"/>
<!-- 6 -->
<g id="node1" class="node">
<title>6</title>
<polygon fill="#f2f2f2" stroke="black" points="0,-388.5 0,-562.1 952.14,-562.1 952.14,-388.5 0,-388.5"/>
<text text-anchor="middle" x="476.07" y="-545.5" font-family="Courier New" font-size="14.00">Store &lt;&lt;Contract&gt;&gt;</text>
<polyline fill="none" stroke="black" points="0,-537.3 952.14,-537.3 "/>
<text text-anchor="middle" x="24.8" y="-520.7" font-family="Courier New" font-size="14.00">slot</text>
<polyline fill="none" stroke="black" points="0,-512.5 49.61,-512.5 "/>
<text text-anchor="middle" x="24.8" y="-495.9" font-family="Courier New" font-size="14.00">0</text>
<polyline fill="none" stroke="black" points="0,-487.7 49.61,-487.7 "/>
<text text-anchor="middle" x="24.8" y="-471.1" font-family="Courier New" font-size="14.00">1</text>
<polyline fill="none" stroke="black" points="0,-462.9 49.61,-462.9 "/>
<text text-anchor="middle" x="24.8" y="-446.3" font-family="Courier New" font-size="14.00">2</text>
<polyline fill="none" stroke="black" points="0,-438.1 49.61,-438.1 "/>
<text text-anchor="middle" x="24.8" y="-421.5" font-family="Courier New" font-size="14.00">3</text>
<polyline fill="none" stroke="black" points="0,-413.3 49.61,-413.3 "/>
<text text-anchor="middle" x="24.8" y="-396.7" font-family="Courier New" font-size="14.00">4&#45;43</text>
<polyline fill="none" stroke="black" points="49.61,-388.5 49.61,-537.3 "/>
<text text-anchor="middle" x="500.87" y="-520.7" font-family="Courier New" font-size="14.00">type: &lt;inherited contract&gt;.variable (bytes)</text>
<polyline fill="none" stroke="black" points="49.61,-512.5 952.14,-512.5 "/>
<text text-anchor="middle" x="500.62" y="-495.9" font-family="Courier New" font-size="14.00">uint256: number (32)</text>
<polyline fill="none" stroke="black" points="49.61,-487.7 952.14,-487.7 "/>
<text text-anchor="middle" x="500.63" y="-471.1" font-family="Courier New" font-size="14.00">mapping(address=&gt;uint256): balances (32)</text>
<polyline fill="none" stroke="black" points="49.61,-462.9 952.14,-462.9 "/>
<text text-anchor="middle" x="268.82" y="-446.3" font-family="Courier New" font-size="14.00">unallocated (12)</text>
<polyline fill="none" stroke="black" points="488.03,-438.1 488.03,-462.9 "/>
<text text-anchor="middle" x="719.84" y="-446.3" font-family="Courier New" font-size="14.00">address: admin (20)</text>
<polyline fill="none" stroke="black" points="49.61,-438.1 952.14,-438.1 "/>
<text text-anchor="middle" x="120.62" y="-421.5" font-family="Courier New" font-size="14.00">unallocated (8)</text>
<polyline fill="none" stroke="black" points="191.63,-413.3 191.63,-438.1 "/>
<text text-anchor="middle" x="262.64" y="-421.5" font-family="Courier New" font-size="14.00">bool: flag3 (1)</text>
<polyline fill="none" stroke="black" points="333.65,-413.3 333.65,-438.1 "/>
<text text-anchor="middle" x="404.66" y="-421.5" font-family="Courier New" font-size="14.00">bool: flag2 (1)</text>
<polyline fill="none" stroke="black" points="475.67,-413.3 475.67,-438.1 "/>
<text text-anchor="middle" x="546.68" y="-421.5" font-family="Courier New" font-size="14.00">bool: flag1 (1)</text>
<polyline fill="none" stroke="black" points="617.69,-413.3 617.69,-438.1 "/>
<text text-anchor="middle" x="692.9" y="-421.5" font-family="Courier New" font-size="14.00">uint8: index (1)</text>
<polyline fill="none" stroke="black" points="768.11,-413.3 768.11,-438.1 "/>
<text text-anchor="middle" x="860.12" y="-421.5" font-family="Courier New" font-size="14.00">address: admin2 (20)</text>
<polyline fill="none" stroke="black" points="49.61,-413.3 952.14,-413.3 "/>
<text text-anchor="middle" x="500.83" y="-396.7" font-family="Courier New" font-size="14.00">payments[8]: topPayments (1280)</text>
</g>
<!-- 5 -->
<g id="node6" class="node">
<title>5</title>
<polygon fill="#f2f2f2" stroke="black" points="988.14,-314.5 988.14,-488.1 1289.78,-488.1 1289.78,-314.5 988.14,-314.5"/>
<text text-anchor="middle" x="1138.96" y="-471.5" font-family="Courier New" font-size="14.00">payments[8]: topPayments &lt;&lt;Array&gt;&gt;</text>
<polyline fill="none" stroke="black" points="988.14,-463.3 1289.78,-463.3 "/>
<text text-anchor="middle" x="1027.64" y="-446.7" font-family="Courier New" font-size="14.00">slot</text>
<polyline fill="none" stroke="black" points="988.14,-438.5 1067.14,-438.5 "/>
<text text-anchor="middle" x="1027.64" y="-421.9" font-family="Courier New" font-size="14.00">4&#45;8</text>
<polyline fill="none" stroke="black" points="988.14,-413.7 1067.14,-413.7 "/>
<text text-anchor="middle" x="1027.64" y="-397.1" font-family="Courier New" font-size="14.00">9&#45;14</text>
<polyline fill="none" stroke="black" points="988.14,-388.9 1067.14,-388.9 "/>
<text text-anchor="middle" x="1027.64" y="-372.3" font-family="Courier New" font-size="14.00">14&#45;34</text>
<polyline fill="none" stroke="black" points="988.14,-364.1 1067.14,-364.1 "/>
<text text-anchor="middle" x="1027.64" y="-347.5" font-family="Courier New" font-size="14.00">34&#45;39</text>
<polyline fill="none" stroke="black" points="988.14,-339.3 1067.14,-339.3 "/>
<text text-anchor="middle" x="1027.64" y="-322.7" font-family="Courier New" font-size="14.00">39&#45;44</text>
<polyline fill="none" stroke="black" points="1067.14,-314.5 1067.14,-463.3 "/>
<text text-anchor="middle" x="1178.06" y="-446.7" font-family="Courier New" font-size="14.00">type: variable (bytes)</text>
<polyline fill="none" stroke="black" points="1067.14,-438.5 1288.97,-438.5 "/>
<text text-anchor="middle" x="1177.95" y="-421.9" font-family="Courier New" font-size="14.00">payments (160)</text>
<polyline fill="none" stroke="black" points="1067.14,-413.7 1288.97,-413.7 "/>
<text text-anchor="middle" x="1177.95" y="-397.1" font-family="Courier New" font-size="14.00">payments (160)</text>
<polyline fill="none" stroke="black" points="1067.14,-388.9 1288.97,-388.9 "/>
<text text-anchor="middle" x="1177.65" y="-372.3" font-family="Courier New" font-size="14.00">&#45;&#45;&#45;&#45; (672)</text>
<polyline fill="none" stroke="black" points="1067.14,-364.1 1288.97,-364.1 "/>
<text text-anchor="middle" x="1177.95" y="-347.5" font-family="Courier New" font-size="14.00">payments (160)</text>
<polyline fill="none" stroke="black" points="1067.14,-339.3 1288.97,-339.3 "/>
<text text-anchor="middle" x="1177.95" y="-322.7" font-family="Courier New" font-size="14.00">payments (160)</text>
</g>
<!-- 6&#45;&gt;5 -->
<g id="edge1" class="edge">
<title>6:46&#45;&gt;5</title>
<path fill="none" stroke="black" d="M952.14,-401.3C960.54,-401.3 969.16,-401.3 977.86,-401.3"/>
<polygon fill="black" stroke="black" points="978.11,-404.8 988.11,-401.3 978.11,-397.8 978.11,-404.8"/>
</g>
<!-- 1 -->
<g id="node2" class="node">
<title>1</title>
<polygon fill="#f2f2f2" stroke="black" points="1325.78,-579.5 1325.78,-753.1 2219.91,-753.1 2219.91,-579.5 1325.78,-579.5"/>
<text text-anchor="middle" x="1772.85" y="-736.5" font-family="Courier New" font-size="14.00">payments &lt;&lt;Struct&gt;&gt;</text>
<polyline fill="none" stroke="black" points="1325.78,-728.3 2219.91,-728.3 "/>
<text text-anchor="middle" x="1350.59" y="-711.7" font-family="Courier New" font-size="14.00">slot</text>
<polyline fill="none" stroke="black" points="1325.78,-703.5 1375.39,-703.5 "/>
<text text-anchor="middle" x="1350.59" y="-686.9" font-family="Courier New" font-size="14.00">4</text>
<polyline fill="none" stroke="black" points="1325.78,-678.7 1375.39,-678.7 "/>
<text text-anchor="middle" x="1350.59" y="-662.1" font-family="Courier New" font-size="14.00">5</text>
<polyline fill="none" stroke="black" points="1325.78,-653.9 1375.39,-653.9 "/>
<text text-anchor="middle" x="1350.59" y="-637.3" font-family="Courier New" font-size="14.00">6</text>
<polyline fill="none" stroke="black" points="1325.78,-629.1 1375.39,-629.1 "/>
<text text-anchor="middle" x="1350.59" y="-612.5" font-family="Courier New" font-size="14.00">7</text>
<polyline fill="none" stroke="black" points="1325.78,-604.3 1375.39,-604.3 "/>
<text text-anchor="middle" x="1350.59" y="-587.7" font-family="Courier New" font-size="14.00">8</text>
<polyline fill="none" stroke="black" points="1375.39,-579.5 1375.39,-728.3 "/>
<text text-anchor="middle" x="1797.65" y="-711.7" font-family="Courier New" font-size="14.00">type: variable (bytes)</text>
<polyline fill="none" stroke="black" points="1375.39,-703.5 2219.91,-703.5 "/>
<text text-anchor="middle" x="1797.4" y="-686.9" font-family="Courier New" font-size="14.00">uint256: amount (32)</text>
<polyline fill="none" stroke="black" points="1375.39,-678.7 2219.91,-678.7 "/>
<text text-anchor="middle" x="1797.41" y="-662.1" font-family="Courier New" font-size="14.00">uint256: finalAmount (32)</text>
<polyline fill="none" stroke="black" points="1375.39,-653.9 2219.91,-653.9 "/>
<text text-anchor="middle" x="1797.31" y="-637.3" font-family="Courier New" font-size="14.00">uint256: initialAmount (32)</text>
<polyline fill="none" stroke="black" points="1375.39,-629.1 2219.91,-629.1 "/>
<text text-anchor="middle" x="1578.1" y="-612.5" font-family="Courier New" font-size="14.00">unallocated (12)</text>
<polyline fill="none" stroke="black" points="1780.81,-604.3 1780.81,-629.1 "/>
<text text-anchor="middle" x="2000.32" y="-612.5" font-family="Courier New" font-size="14.00">address: sender (20)</text>
<polyline fill="none" stroke="black" points="1375.39,-604.3 2219.91,-604.3 "/>
<text text-anchor="middle" x="1446.4" y="-587.7" font-family="Courier New" font-size="14.00">unallocated (9)</text>
<polyline fill="none" stroke="black" points="1517.41,-579.5 1517.41,-604.3 "/>
<text text-anchor="middle" x="1596.82" y="-587.7" font-family="Courier New" font-size="14.00">bool: checked (1)</text>
<polyline fill="none" stroke="black" points="1676.23,-579.5 1676.23,-604.3 "/>
<text text-anchor="middle" x="1747.24" y="-587.7" font-family="Courier New" font-size="14.00">bool: valid (1)</text>
<polyline fill="none" stroke="black" points="1818.25,-579.5 1818.25,-604.3 "/>
<text text-anchor="middle" x="1918.67" y="-587.7" font-family="Courier New" font-size="14.00">uint8: paymentType (1)</text>
<polyline fill="none" stroke="black" points="2019.08,-579.5 2019.08,-604.3 "/>
<text text-anchor="middle" x="2119.5" y="-587.7" font-family="Courier New" font-size="14.00">address: receiver (20)</text>
</g>
<!-- 2 -->
<g id="node3" class="node">
<title>2</title>
<polygon fill="#f2f2f2" stroke="black" points="1325.78,-386.5 1325.78,-560.1 2219.91,-560.1 2219.91,-386.5 1325.78,-386.5"/>
<text text-anchor="middle" x="1772.85" y="-543.5" font-family="Courier New" font-size="14.00">payments &lt;&lt;Struct&gt;&gt;</text>
<polyline fill="none" stroke="black" points="1325.78,-535.3 2219.91,-535.3 "/>
<text text-anchor="middle" x="1350.59" y="-518.7" font-family="Courier New" font-size="14.00">slot</text>
<polyline fill="none" stroke="black" points="1325.78,-510.5 1375.39,-510.5 "/>
<text text-anchor="middle" x="1350.59" y="-493.9" font-family="Courier New" font-size="14.00">9</text>
<polyline fill="none" stroke="black" points="1325.78,-485.7 1375.39,-485.7 "/>
<text text-anchor="middle" x="1350.59" y="-469.1" font-family="Courier New" font-size="14.00">10</text>
<polyline fill="none" stroke="black" points="1325.78,-460.9 1375.39,-460.9 "/>
<text text-anchor="middle" x="1350.59" y="-444.3" font-family="Courier New" font-size="14.00">11</text>
<polyline fill="none" stroke="black" points="1325.78,-436.1 1375.39,-436.1 "/>
<text text-anchor="middle" x="1350.59" y="-419.5" font-family="Courier New" font-size="14.00">12</text>
<polyline fill="none" stroke="black" points="1325.78,-411.3 1375.39,-411.3 "/>
<text text-anchor="middle" x="1350.59" y="-394.7" font-family="Courier New" font-size="14.00">13</text>
<polyline fill="none" stroke="black" points="1375.39,-386.5 1375.39,-535.3 "/>
<text text-anchor="middle" x="1797.65" y="-518.7" font-family="Courier New" font-size="14.00">type: variable (bytes)</text>
<polyline fill="none" stroke="black" points="1375.39,-510.5 2219.91,-510.5 "/>
<text text-anchor="middle" x="1797.4" y="-493.9" font-family="Courier New" font-size="14.00">uint256: amount (32)</text>
<polyline fill="none" stroke="black" points="1375.39,-485.7 2219.91,-485.7 "/>
<text text-anchor="middle" x="1797.41" y="-469.1" font-family="Courier New" font-size="14.00">uint256: finalAmount (32)</text>
<polyline fill="none" stroke="black" points="1375.39,-460.9 2219.91,-460.9 "/>
<text text-anchor="middle" x="1797.31" y="-444.3" font-family="Courier New" font-size="14.00">uint256: initialAmount (32)</text>
<polyline fill="none" stroke="black" points="1375.39,-436.1 2219.91,-436.1 "/>
<text text-anchor="middle" x="1578.1" y="-419.5" font-family="Courier New" font-size="14.00">unallocated (12)</text>
<polyline fill="none" stroke="black" points="1780.81,-411.3 1780.81,-436.1 "/>
<text text-anchor="middle" x="2000.32" y="-419.5" font-family="Courier New" font-size="14.00">address: sender (20)</text>
<polyline fill="none" stroke="black" points="1375.39,-411.3 2219.91,-411.3 "/>
<text text-anchor="middle" x="1446.4" y="-394.7" font-family="Courier New" font-size="14.00">unallocated (9)</text>
<polyline fill="none" stroke="black" points="1517.41,-386.5 1517.41,-411.3 "/>
<text text-anchor="middle" x="1596.82" y="-394.7" font-family="Courier New" font-size="14.00">bool: checked (1)</text>
<polyline fill="none" stroke="black" points="1676.23,-386.5 1676.23,-411.3 "/>
<text text-anchor="middle" x="1747.24" y="-394.7" font-family="Courier New" font-size="14.00">bool: valid (1)</text>
<polyline fill="none" stroke="black" points="1818.25,-386.5 1818.25,-411.3 "/>
<text text-anchor="middle" x="1918.67" y="-394.7" font-family="Courier New" font-size="14.00">uint8: paymentType (1)</text>
<polyline fill="none" stroke="black" points="2019.08,-386.5 2019.08,-411.3 "/>
<text text-anchor="middle" x="2119.5" y="-394.7" font-family="Courier New" font-size="14.00">address: receiver (20)</text>
</g>
<!-- 3 -->
<g id="node4" class="node">
<title>3</title>
<polygon fill="#f2f2f2" stroke="black" points="1325.78,-193.5 1325.78,-367.1 2219.91,-367.1 2219.91,-193.5 1325.78,-193.5"/>
<text text-anchor="middle" x="1772.85" y="-350.5" font-family="Courier New" font-size="14.00">payments &lt;&lt;Struct&gt;&gt;</text>
<polyline fill="none" stroke="black" points="1325.78,-342.3 2219.91,-342.3 "/>
<text text-anchor="middle" x="1350.59" y="-325.7" font-family="Courier New" font-size="14.00">slot</text>
<polyline fill="none" stroke="black" points="1325.78,-317.5 1375.39,-317.5 "/>
<text text-anchor="middle" x="1350.59" y="-300.9" font-family="Courier New" font-size="14.00">34</text>
<polyline fill="none" stroke="black" points="1325.78,-292.7 1375.39,-292.7 "/>
<text text-anchor="middle" x="1350.59" y="-276.1" font-family="Courier New" font-size="14.00">35</text>
<polyline fill="none" stroke="black" points="1325.78,-267.9 1375.39,-267.9 "/>
<text text-anchor="middle" x="1350.59" y="-251.3" font-family="Courier New" font-size="14.00">36</text>
<polyline fill="none" stroke="black" points="1325.78,-243.1 1375.39,-243.1 "/>
<text text-anchor="middle" x="1350.59" y="-226.5" font-family="Courier New" font-size="14.00">37</text>
<polyline fill="none" stroke="black" points="1325.78,-218.3 1375.39,-218.3 "/>
<text text-anchor="middle" x="1350.59" y="-201.7" font-family="Courier New" font-size="14.00">38</text>
<polyline fill="none" stroke="black" points="1375.39,-193.5 1375.39,-342.3 "/>
<text text-anchor="middle" x="1797.65" y="-325.7" font-family="Courier New" font-size="14.00">type: variable (bytes)</text>
<polyline fill="none" stroke="black" points="1375.39,-317.5 2219.91,-317.5 "/>
<text text-anchor="middle" x="1797.4" y="-300.9" font-family="Courier New" font-size="14.00">uint256: amount (32)</text>
<polyline fill="none" stroke="black" points="1375.39,-292.7 2219.91,-292.7 "/>
<text text-anchor="middle" x="1797.41" y="-276.1" font-family="Courier New" font-size="14.00">uint256: finalAmount (32)</text>
<polyline fill="none" stroke="black" points="1375.39,-267.9 2219.91,-267.9 "/>
<text text-anchor="middle" x="1797.31" y="-251.3" font-family="Courier New" font-size="14.00">uint256: initialAmount (32)</text>
<polyline fill="none" stroke="black" points="1375.39,-243.1 2219.91,-243.1 "/>
<text text-anchor="middle" x="1578.1" y="-226.5" font-family="Courier New" font-size="14.00">unallocated (12)</text>
<polyline fill="none" stroke="black" points="1780.81,-218.3 1780.81,-243.1 "/>
<text text-anchor="middle" x="2000.32" y="-226.5" font-family="Courier New" font-size="14.00">address: sender (20)</text>
<polyline fill="none" stroke="black" points="1375.39,-218.3 2219.91,-218.3 "/>
<text text-anchor="middle" x="1446.4" y="-201.7" font-family="Courier New" font-size="14.00">unallocated (9)</text>
<polyline fill="none" stroke="black" points="1517.41,-193.5 1517.41,-218.3 "/>
<text text-anchor="middle" x="1596.82" y="-201.7" font-family="Courier New" font-size="14.00">bool: checked (1)</text>
<polyline fill="none" stroke="black" points="1676.23,-193.5 1676.23,-218.3 "/>
<text text-anchor="middle" x="1747.24" y="-201.7" font-family="Courier New" font-size="14.00">bool: valid (1)</text>
<polyline fill="none" stroke="black" points="1818.25,-193.5 1818.25,-218.3 "/>
<text text-anchor="middle" x="1918.67" y="-201.7" font-family="Courier New" font-size="14.00">uint8: paymentType (1)</text>
<polyline fill="none" stroke="black" points="2019.08,-193.5 2019.08,-218.3 "/>
<text text-anchor="middle" x="2119.5" y="-201.7" font-family="Courier New" font-size="14.00">address: receiver (20)</text>
</g>
<!-- 4 -->
<g id="node5" class="node">
<title>4</title>
<polygon fill="#f2f2f2" stroke="black" points="1325.78,-0.5 1325.78,-174.1 2219.91,-174.1 2219.91,-0.5 1325.78,-0.5"/>
<text text-anchor="middle" x="1772.85" y="-157.5" font-family="Courier New" font-size="14.00">payments &lt;&lt;Struct&gt;&gt;</text>
<polyline fill="none" stroke="black" points="1325.78,-149.3 2219.91,-149.3 "/>
<text text-anchor="middle" x="1350.59" y="-132.7" font-family="Courier New" font-size="14.00">slot</text>
<polyline fill="none" stroke="black" points="1325.78,-124.5 1375.39,-124.5 "/>
<text text-anchor="middle" x="1350.59" y="-107.9" font-family="Courier New" font-size="14.00">39</text>
<polyline fill="none" stroke="black" points="1325.78,-99.7 1375.39,-99.7 "/>
<text text-anchor="middle" x="1350.59" y="-83.1" font-family="Courier New" font-size="14.00">40</text>
<polyline fill="none" stroke="black" points="1325.78,-74.9 1375.39,-74.9 "/>
<text text-anchor="middle" x="1350.59" y="-58.3" font-family="Courier New" font-size="14.00">41</text>
<polyline fill="none" stroke="black" points="1325.78,-50.1 1375.39,-50.1 "/>
<text text-anchor="middle" x="1350.59" y="-33.5" font-family="Courier New" font-size="14.00">42</text>
<polyline fill="none" stroke="black" points="1325.78,-25.3 1375.39,-25.3 "/>
<text text-anchor="middle" x="1350.59" y="-8.7" font-family="Courier New" font-size="14.00">43</text>
<polyline fill="none" stroke="black" points="1375.39,-0.5 1375.39,-149.3 "/>
<text text-anchor="middle" x="1797.65" y="-132.7" font-family="Courier New" font-size="14.00">type: variable (bytes)</text>
<polyline fill="none" stroke="black" points="1375.39,-124.5 2219.91,-124.5 "/>
<text text-anchor="middle" x="1797.4" y="-107.9" font-family="Courier New" font-size="14.00">uint256: amount (32)</text>
<polyline fill="none" stroke="black" points="1375.39,-99.7 2219.91,-99.7 "/>
<text text-anchor="middle" x="1797.41" y="-83.1" font-family="Courier New" font-size="14.00">uint256: finalAmount (32)</text>
<polyline fill="none" stroke="black" points="1375.39,-74.9 2219.91,-74.9 "/>
<text text-anchor="middle" x="1797.31" y="-58.3" font-family="Courier New" font-size="14.00">uint256: initialAmount (32)</text>
<polyline fill="none" stroke="black" points="1375.39,-50.1 2219.91,-50.1 "/>
<text text-anchor="middle" x="1578.1" y="-33.5" font-family="Courier New" font-size="14.00">unallocated (12)</text>
<polyline fill="none" stroke="black" points="1780.81,-25.3 1780.81,-50.1 "/>
<text text-anchor="middle" x="2000.32" y="-33.5" font-family="Courier New" font-size="14.00">address: sender (20)</text>
<polyline fill="none" stroke="black" points="1375.39,-25.3 2219.91,-25.3 "/>
<text text-anchor="middle" x="1446.4" y="-8.7" font-family="Courier New" font-size="14.00">unallocated (9)</text>
<polyline fill="none" stroke="black" points="1517.41,-0.5 1517.41,-25.3 "/>
<text text-anchor="middle" x="1596.82" y="-8.7" font-family="Courier New" font-size="14.00">bool: checked (1)</text>
<polyline fill="none" stroke="black" points="1676.23,-0.5 1676.23,-25.3 "/>
<text text-anchor="middle" x="1747.24" y="-8.7" font-family="Courier New" font-size="14.00">bool: valid (1)</text>
<polyline fill="none" stroke="black" points="1818.25,-0.5 1818.25,-25.3 "/>
<text text-anchor="middle" x="1918.67" y="-8.7" font-family="Courier New" font-size="14.00">uint8: paymentType (1)</text>
<polyline fill="none" stroke="black" points="2019.08,-0.5 2019.08,-25.3 "/>
<text text-anchor="middle" x="2119.5" y="-8.7" font-family="Courier New" font-size="14.00">address: receiver (20)</text>
</g>
<!-- 5&#45;&gt;1 -->
<g id="edge2" class="edge">
<title>5:17&#45;&gt;1</title>
<path fill="none" stroke="black" d="M1289.78,-426.3C1355.32,-426.3 1278.69,-523.72 1325.78,-569.3 1326.9,-570.38 1328.02,-571.44 1329.15,-572.5"/>
<polygon fill="black" stroke="black" points="1326.95,-575.23 1336.73,-579.31 1331.63,-570.02 1326.95,-575.23"/>
</g>
<!-- 5&#45;&gt;2 -->
<g id="edge3" class="edge">
<title>5:18&#45;&gt;2</title>
<path fill="none" stroke="black" d="M1289.78,-401.3C1298.3,-401.3 1306.89,-401.41 1315.54,-401.62"/>
<polygon fill="black" stroke="black" points="1315.61,-405.13 1325.71,-401.92 1315.82,-398.13 1315.61,-405.13"/>
</g>
<!-- 5&#45;&gt;3 -->
<g id="edge4" class="edge">
<title>5:20&#45;&gt;3</title>
<path fill="none" stroke="black" d="M1289.78,-351.3C1298.3,-351.3 1306.88,-351.19 1315.53,-350.98"/>
<polygon fill="black" stroke="black" points="1315.81,-354.47 1325.7,-350.69 1315.6,-347.48 1315.81,-354.47"/>
</g>
<!-- 5&#45;&gt;4 -->
<g id="edge5" class="edge">
<title>5:21&#45;&gt;4</title>
<path fill="none" stroke="black" d="M1289.78,-327.3C1355.32,-327.3 1278.69,-229.88 1325.78,-184.3 1326.9,-183.22 1328.02,-182.16 1329.15,-181.1"/>
<polygon fill="black" stroke="black" points="1331.63,-183.58 1336.73,-174.29 1326.95,-178.37 1331.63,-183.58"/>
</g>
</g>
</svg>
